<svg xmlns="http://www.w3.org/2000/svg" viewBox="0 0 122 40" role="img" aria-label="Download on the App Store">
    <rect width="122" height="40" rx="7" fill="#111"/>
    <rect x=".5" y=".5" width="121" height="39" rx="6.5" fill="none" stroke="#a6a6a6"/>
    <path fill="#fff" d="M22.5 13.2c1.1-1.3 1-2.8 1-3.2-1.4.1-3 1-3.9 2.1-.9 1-1.2 2.3-1.1 3.1 1.5.1 3-.7 4-2Zm3.2 7.5c0-3 2.5-4.4 2.6-4.5-1.4-2.1-3.7-2.3-4.5-2.3-1.9-.2-3.7 1.1-4.7 1.1-1 0-2.5-1.1-4.2-1-2.1 0-4.1 1.3-5.2 3.2-2.2 3.9-.6 9.6 1.6 12.7 1.1 1.5 2.3 3.2 4 3.1 1.6-.1 2.2-1 4.1-1s2.5 1 4.2 1c1.7 0 2.8-1.5 3.9-3.1 1.2-1.8 1.7-3.5 1.8-3.6-.1 0-3.6-1.4-3.6-5.6Z" transform="translate(2 3) scale(.78)"/>
    <text x="35" y="14" fill="#fff" font-family="Arial,sans-serif" font-size="7">TẢI VỀ TRÊN</text>
    <text x="35" y="29" fill="#fff" font-family="Arial,sans-serif" font-size="15" font-weight="600">App Store</text>
</svg>
